# xmcd CD database file
#
# Track frame offsets:
#	150
#	19957
#	47895
#	67667
#
# Disc length: 1272 seconds
#
# Revision: 0
# Processed by: cddbd v1.5.1PL2 Copyright (c) Steve Scherf et al.
# Submitted via: CDex 1.60beta1
#
DISCID=2c04f604
DTITLE=中森明菜 - Trust Me
DYEAR=1999
DGENRE=JPop
TTITLE0=Trust Me
TTITLE1=雪の花 〜White X'mas〜 (chumber music version)
TTITLE2=Trust Me (voiceless version)
TTITLE3=雪の花 〜White X'mas〜 (voiceless version)
EXTD=YEAR: 1999
EXTT0=
EXTT1=
EXTT2=
EXTT3=
PLAYORDER=
